<?xml version="1.0" encoding="UTF-8"?><svg id="a" xmlns="http://www.w3.org/2000/svg" viewBox="0 0 112.8 120.3"><defs><style>.b{fill:#654696;}</style></defs><path class="b" d="m0,107.7C0,73.6,0,39.5,0,5.4c0,0,.2-.7.2-.9.2-.5.3-1,.5-1.4C1.7,1.8,2.8.7,4.5.2c.1,0,.9-.2.9-.2,34.1,0,68.2,0,102.2,0,0,0,.8.2.9.2.5.2,1,.3,1.4.6,1.4.9,2.4,2.1,2.9,3.7,0,.1,0,103.9,0,104.3-.1,1.1-.9,1.8-1.5,2.5-.7.8-1.6,1.4-2.6,1.7-.1,0-.9,0-.9.1h-29.6c0,0,0-.2,0-.3,0-14.3,0-28.7,0-43,0-.5.2-.6.6-.6,4.5,0,9,0,13.5,0,.2,0,.4,0,.5-.3.2-.6.2-1.3.3-1.9.2-1.3.4-2.6.5-4,.1-1.4.4-2.8.5-4.3,0-1.2.3-2.3.4-3.5,0-.8.2-1.5.3-2.3.2-.7.2-.8-.6-.8-5.2,0-10.4,0-15.5,0-.5,0-.6-.1-.6-.6,0-3.6,0-7.2,0-10.8,0-1.1,0-2.1.4-3.1.5-1.8,1.5-3.2,3.3-3.9,1.5-.6,3.2-.8,4.8-.8,2.4,0,4.9,0,7.3,0,.5,0,1.2.2,1.5,0,.4-.3.1-1,.1-1.6,0-4.3,0-8.7,0-13,0-.3,0-.5-.4-.6-1.7-.2-3.4-.3-5-.4-1.6-.1-3.2-.1-4.8-.2-2.6-.1-5.1,0-7.7.3-1.7.3-3.4.8-5.1,1.4-3.4,1.4-6.1,3.5-8.2,6.5-1.5,2.1-2.5,4.4-3.1,6.9-.4,1.7-.8,3.4-.8,5.1,0,4.7,0,9.4,0,14.1,0,.6-.2.7-.7.7-4.5,0-9,0-13.5,0-.4,0-.6,0-.6.5,0,5.3,0,10.6,0,15.8,0,.5.1.7.7.7,4.5,0,9,0,13.4,0,.6,0,.7.1.7.7,0,14.1,0,28.2,0,42.3,0,.3,0,.5,0,.8H5.4s-.1,0-.1,0c-.2,0-.7-.1-.9-.2-.5-.2-.9-.4-1.3-.6-1.4-.9-2.5-2.1-2.9-3.7,0-.1-.2-.6-.2-.8,0,0,0,0,0-.1Z"/><path d="m109.8,120.3c0,0,0-.1.1,0,0,0,0,0,0,0h-.1Z"/></svg>