<?xml version="1.0" encoding="UTF-8"?><svg id="a" xmlns="http://www.w3.org/2000/svg" viewBox="0 0 99.2 99.2"><defs><style>.b{fill:#a580b8;stroke:#a580b8;stroke-miterlimit:10;stroke-width:4px;}</style></defs><path class="b" d="m2,24c-.1-5,1.2-9.6,4.3-13.5,2.7-3.3,5.9-6,10.2-7.3,3.3-.9,6.7-1.2,10.1-1.2,16.3,0,32.6-.2,48.9,0,8.4.1,15,3.9,19.1,11.5,1.2,2.2,1.6,4.7,2.3,7.1.3,16.8.2,56.2-.3,58.6-1.2,6-4.1,10.7-9.1,14.1-3.3,2.3-6.9,3.5-10.9,3.8-.8,0-35.1-.2-51.5,0-4.6,0-8.9-.6-12.9-3-4.2-2.5-7-6.2-8.9-10.6-.8-2-1.3-4.1-1.4-6.3,0-4.9.2-47,0-53.3Zm5,52.5c0,.3,0,1.7,0,2.2.6,2.6,1.6,5,3.2,7.1,2.8,3.6,6.5,6,10.9,6.4,4.9.4,9.8,0,14.8,0,8.6.2,17.2.2,25.8,0,4,0,7.9,0,11.9,0,3,.1,5.9-.2,8.8-1.4,2.9-1.1,5.2-3.1,6.9-5.6,1.5-2.3,2.5-5,3.2-7.7-.2-.9-.3-36.5-.3-53.3,0-1.6-.6-5-.6-5.2-2.4-7.7-8.7-12.2-16.8-12.2-16.2,0-32.4,0-48.6,0-2.4,0-4.7,0-7,.6-7.1,1.6-11.7,7.6-12.2,13.6-.5,6.7,0,43.7,0,55.4Z"/><path class="b" d="m25.7,51.4c0-3.3.2-6.6,1.4-9.7,1.2-3.1,2.8-6,5.1-8.6,2.9-3.2,6.6-4.8,10.4-6.3,4.2-1.7,8.6-1.5,12.9-.3,5,1.3,9.1,4.1,12.6,7.8,1.4,2.5,3.1,4.8,4,7.6,2.7,8.6,1.1,16.3-4.5,23.1-4.5,5.4-10.4,8.3-17.6,8.4-6.8.1-12.5-2.2-17.3-7.1-4.2-4.2-6.4-9.1-7-15Zm31.8-18.1c-.2,0-.5-.1-.7-.2-6-2.6-11.9-2.1-17.3,1.3-4.2,2.7-7.7,7.1-8.3,12-.3,4.1,0,4,.3,6,2,11.3,12.1,17.6,22.7,14.9,8.1-2,14.6-10.5,13.2-20-1-6.4-4.3-11-10-14Z"/><path class="b" d="m78.1,18.3c2.2,2.5,2.4,4.5.9,6.8-1,1.5-4.4,2.3-6.2,1.2-1.9-1.2-2.7-3.9-1.8-5.9.2-.5.5-.9.8-1.4,1.9-1.8,4.1-1.7,6.3-.7Z"/></svg>