<?xml version="1.0" encoding="UTF-8"?><svg id="a" xmlns="http://www.w3.org/2000/svg" viewBox="0 0 37 37"><defs><style>.b{fill:#664796;}</style></defs><path class="b" d="m18.5,14.8c-2,0-3.7,1.7-3.7,3.7s1.7,3.7,3.7,3.7,3.7-1.7,3.7-3.7-1.7-3.7-3.7-3.7Zm0,14.8c-6.1,0-11.1-5-11.1-11.1s5-11.1,11.1-11.1,11.1,5,11.1,11.1-1.2,5.8-3.3,7.8c-2.1,2.1-4.9,3.3-7.8,3.3Zm17.6-12.9h-2.9c-.8-6.7-6.1-12-12.8-12.8V.9c0-.5-.4-.9-.9-.9h-1.9c-.5,0-.9.4-.9.9v2.9c-6.7.8-12,6.1-12.8,12.8H.9c-.5,0-.9.4-.9.9v1.8c0,.5.4.9.9.9h2.9c.8,6.7,6.1,12,12.8,12.8v2.9c0,.5.4.9.9.9h1.9c.5,0,.9-.4.9-.9v-2.9c6.7-.8,12-6.1,12.8-12.8h2.9c.5,0,.9-.4.9-.9v-1.8c0-.5-.4-.9-.9-.9Z"/></svg>