<?xml version="1.0" encoding="UTF-8"?><svg id="a" xmlns="http://www.w3.org/2000/svg" viewBox="0 0 521.1 569.4"><defs><style>.b{fill:#a27953;}.c{fill:#1d1d1b;}</style></defs><path class="b" d="m521.1,321c-12.8-.9-25.8,1.6-37.5,6.8-3.3,1.5-14.6,5.8-15.8,9.4-1.5,4.2,6.9,10,10.1,13.2-2.1-.9-12.2,3.1-12,5.3.2,2.2,9.7,2.5,11.4,3.9-2.9-.5-9.3,13.3-9.4,14.1-3.5,23.8-7.8,47.4-12.9,70.9-1,4.8-5.1,11.1-10.6,9.2,4.2,1.5-4,31.3-5.4,34.6-6.2,14.9-19,16-32.1,21.2-5.2,2.1-7.6,9.8-10.3,14.3-9.1,15.7-27,23-43.2,28.8-18.6,6.6-37.9,11.2-57.4,13.8-39.1,5.3-79.3,2.9-117.4-7.3-12.4-3.3-28.1-6.7-39.1-13.7-13.8-8.8-12.9-27.5-29.4-34.5-5.5-2.3-11.4-3.8-16.6-6.7-10.5-5.7-14.2-18.6-15.9-29.7-.4-2.2-2.1-18.1-.7-18.6-5.5,2-9.5-4.3-10.6-9.2-5.1-23.5-9.3-47.1-12.9-70.9-.1-.8-6.5-14.6-9.5-14.1,1.7-1.5,10.6-1.6,10.7-3.8.2-2.2-9.3-6.3-11.3-5.4,3.2-3.2,11.6-9.1,10.1-13.2-1.2-3.6-12.5-7.9-15.8-9.4-11.7-5.2-24.7-7.7-37.5-6.8,10.8-17.4,27.9-30.9,47.4-37.3-14.2-7.9-29-14.8-44.1-20.8,7.9-6.7,18.1-10.8,28.4-11.4-7.6-6.1-14.6-12.9-20.9-20.4l36.2-15.3c-2.5-13.6-5-27.1-7.5-40.7,9.6-2.5,19.2-5.1,28.9-7.6-9.2-22.5-16.7-45.7-20.3-69.7-4.6-30.8-2.2-63.2,11.1-91.3,1.1-2.3,2.3-4.6,4.5-5.8,1.8-.9,4-.9,6-.6,19.4,2.7,31.1,22.3,40.5,39.4,20.5,37,43.9,72.4,70.1,105.6,24.1-3.4,136.4-5.7,160.5-2.3,26.2-33.2,49.6-68.6,70.1-105.6,9.5-17.2,21.1-36.7,40.5-39.4,2-.3,4.2-.3,6,.6,2.2,1.2,3.5,3.5,4.6,5.8,13.3,28.1,15.6,60.5,11,91.3-3.5,24-11.1,47.2-20.3,69.7,9.6,2.5,19.2,5.1,28.9,7.6-2.5,13.5-5,27.1-7.5,40.7,12.1,5.1,24.1,10.2,36.2,15.3-6.3,7.4-13.4,14.2-21,20.4,10.4.6,20.5,4.7,28.5,11.4-15.1,6-29.9,12.9-44.1,20.8,19.5,6.4,36.6,19.8,47.4,37.3Z"/><path class="c" d="m265.4,440.2l21.7-38.1c2.1-3.7-.6-8.3-4.8-8.3h-43.3c-4.3,0-6.9,4.6-4.8,8.3l21.7,38.1c2.1,3.7,7.5,3.7,9.7,0Z"/></svg>