<?xml version="1.0" encoding="UTF-8"?><svg id="a" xmlns="http://www.w3.org/2000/svg" viewBox="0 0 433.3 552.5"><defs><style>.b{fill:#a27953;}.c{fill:#1d1d1b;}</style></defs><path class="b" d="m433.3,228.8c-10.5,8.2-21.7,10.6-33.8,14.6,8.9,7.5,18,60.7,21,68.4-10.4-2.7-20.8-5.4-31.2-8,6.3,15.2,10.5,31.3,12.3,47.7-3.3,6.5-12.8,8.9-18.8,4.7,1,6.1-16.2,85.7-15.4,76.7-.4,4.8-20.2,39.9-22.4,50.4-3.1-4.3-6.1-8.6-9.2-12.9-1.4,5-20.3,43.4-22,43.3-3.4-.1-6.7-2.2-8.3-5.1-.5,4.6-14,19.9-17.2,28.8-4.1-1.7-7.6-4.9-9.8-8.8-3.1,5.4-6.2,10.9-9.3,16.3-3.6-3-7.2-6.1-10.8-9.1-3.4,5.6-6.9,11.2-10.3,16.8-5.7-4.6-10.4-9.9-15.1-15.4-2.6,4.2-29.8,4.5-32.6,0-4.7,5.5-9.4,10.9-15.1,15.4-3.4-5.6-6.9-11.2-10.3-16.8-3.6,3.1-7.2,6.1-10.8,9.1-3.1-5.4-6.2-10.9-9.3-16.3-2.2,3.9-5.7,7-9.8,8.8-3.2-8.9-16.8-24.2-17.2-28.8-1.6,3-4.9,5-8.3,5.1-1.7,0-20.6-38.3-22-43.3-3.1,4.3-6.1,8.6-9.2,12.9-2.2-10.5-22-45.6-22.4-50.4.8,9.1-16.4-70.6-15.4-76.7-6,4.2-15.4,1.8-18.7-4.7,1.8-16.4,5.9-32.5,12.3-47.7-10.4,2.7-20.8,5.4-31.2,8,3-7.6,12.1-60.9,21-68.4-12.1-4-23.4-6.4-33.8-14.6,11.2,1.2,22.7-1.3,32.4-6.9-12.3-5.9-11.1-45.1-10.3-44.8,6.2,2,12.4,3.9,18.6,5.8C3.9,134-3.7,65.1,20.8,9.1c1.5-3.4,3.4-7.1,6.9-8.5,2.7-1.1,5.7-.5,8.5.2,18.2,4.9,33.2,17.8,46.9,30.8,30.6,29.2,58.6,61.1,83.3,95.4,16.7.2,33.5-.2,50.2-1,4.3.9,34,1.2,50.4,1,24.8-34.3,52.7-66.3,83.3-95.4,13.7-13,28.6-25.9,46.9-30.8,2.8-.7,5.8-1.3,8.4-.2,3.5,1.4,5.4,5.1,6.9,8.5,24.5,56,16.9,124.9-20,173.8,6.2-1.9,12.5-3.8,18.6-5.8.9-.3,2.1,38.8-10.3,44.8,9.7,5.6,21.2,8.1,32.4,6.9Z"/><path class="c" d="m221.5,425.8l21.7-38.1c2.1-3.7-.6-8.3-4.8-8.3h-43.3c-4.3,0-6.9,4.6-4.8,8.3l21.7,38.1c2.1,3.7,7.5,3.7,9.7,0Z"/></svg>