<?xml version="1.0" encoding="UTF-8"?><svg id="a" xmlns="http://www.w3.org/2000/svg" viewBox="0 0 30 31.3"><defs><style>.b{fill:#ab81cd;}</style></defs><path class="b" d="m23.3,31.3c-2.8,0-5.5-.7-7.9-2.1l-.7-.4c-5.2-2.9-9.4-7.3-12.2-12.7l-.4-.8C.7,12.7,0,9.9,0,6.9v-1.2c0-.9.4-1.8,1-2.5L3.8.4C4.1,0,4.5,0,4.8,0c.4,0,.7.3.9.6l3.7,6.7c.4.7.3,1.5-.3,2.1l-3.1,3.3c-.3.3-.3.7-.1,1l.6,1.1c2.1,4,5.3,7.4,9.2,9.5l1.1.6c.3.2.7.1,1-.2l3.1-3.3c.5-.6,1.4-.7,2-.3l6.4,3.9c.3.2.6.6.6,1,0,.4,0,.8-.4,1.1l-2.8,2.9c-.6.7-1.5,1-2.4,1h-1.1Z"/></svg>