<?xml version="1.0" encoding="UTF-8"?><svg id="a" xmlns="http://www.w3.org/2000/svg" viewBox="0 0 34 35.4"><defs><style>.b{fill:#d0add2;}</style></defs><path class="b" d="m18.5,17.1V8c0-.5-.4-.9-.8-.9h-1.3c-.5,0-.8.4-.8.9v10c0,.2,0,.5.3.6l6.8,7.1c.3.3.9.3,1.2,0l.9-.9c.3-.4.3-.9,0-1.3l-6.2-6.4Zm-1.5,14.8c-7.5,0-13.6-6.3-13.6-14.2S9.5,3.5,17,3.5s13.6,6.3,13.6,14.2-1.4,7.4-4,10c-2.6,2.7-6,4.2-9.6,4.2Zm0-31.9C7.6,0,0,7.9,0,17.7s7.6,17.7,17,17.7,17-7.9,17-17.7-1.8-9.2-5-12.5C25.8,1.9,21.5,0,17,0Z"/></svg>