<?xml version="1.0" encoding="UTF-8"?><svg id="a" xmlns="http://www.w3.org/2000/svg" viewBox="0 0 130.1 107"><defs><style>.b{fill:#d0add2;}</style></defs><path class="b" d="m63.6,33.3c-.1-1.7-.3-3.2-.4-4.7-.7-11.2,5.2-21,15-25.8,10.3-5,21.9-3.2,30.2,4.5,1,.9,1.8,1.3,3.3.9,5.2-1.3,10.1-3.2,15.1-6-1,3.3-2.4,5.9-4.4,8.2-2,2.3-4.3,4.3-6.5,6.5,4.9-.7,9.5-2,14.3-3.6-1,1.3-1.8,2.6-2.9,3.8-3.1,3.1-6.3,6-9.4,9.1-.4.4-.7,1.2-.7,1.7.2,7.9-.9,15.7-3.1,23.3-3.6,12.4-9.7,23.4-18.6,32.7-10.4,11-23.1,18.1-37.9,21.2-9.6,2-19.3,2.4-29.1.9-9.6-1.5-18.6-4.7-27-9.6-.5-.3-1-.6-1.5-1.2,14.2.9,27.1-2.6,38.4-11.4-5.6-.5-10.7-2.2-15.1-5.5-4.5-3.3-7.6-7.7-9.6-13.3,3.9.6,7.7.6,11.8-.5-13.4-4.1-20.5-12.8-21.4-26.8,3.8,1.8,7.5,3.1,11.9,3.2C4.1,30.9,1.5,19.1,7.9,5c14.8,17.3,33.1,26.8,55.7,28.3Z"/></svg>